<?xml version="1.0" encoding="UTF-8"?>
<!DOCTYPE svg PUBLIC "-//W3C//DTD SVG 1.1//EN" "http://www.w3.org/Graphics/SVG/1.1/DTD/svg11.dtd">
<!-- Creator: CorelDRAW X7 -->
<svg xmlns="http://www.w3.org/2000/svg" xml:space="preserve" width="215.9mm" height="279.4mm" version="1.1" style="shape-rendering:geometricPrecision; text-rendering:geometricPrecision; image-rendering:optimizeQuality; fill-rule:evenodd; clip-rule:evenodd"
viewBox="0 0 21590 27940"
 xmlns:xlink="http://www.w3.org/1999/xlink">
 <defs>
  <style type="text/css">
   <![CDATA[
    .fil0 {fill:#373435}
   ]]>
  </style>
 </defs>
 <g id="Capa_x0020_1">
  <metadata id="CorelCorpID_0Corel-Layer"/>
  <path class="fil0" d="M5917 7807l11114 0c185,0 336,151 336,336l0 8391c0,184 -151,335 -336,335l-3863 0c-321,0 -583,262 -583,582l0 732c0,320 262,582 583,582l480 0c294,0 534,240 534,534l0 0c0,293 -240,534 -534,534l-4347 0c-294,0 -534,-241 -534,-534l0 0c0,-294 240,-534 534,-534l480 0c320,0 582,-262 582,-582l0 -732c0,-320 -262,-582 -582,-582l-3864 0c-184,0 -335,-151 -335,-335l0 -8391c0,-185 151,-336 335,-336zm2065 4249l1485 -1485c135,-135 355,-135 491,0 135,136 135,355 0,491l-994 994 994 994c135,135 135,355 0,491 -136,135 -356,135 -491,0l-1485 -1485zm6984 0l-1484 -1485c-136,-135 -356,-135 -491,0 -136,136 -136,355 0,491l994 994 -994 994c-136,135 -136,355 0,491 135,135 355,135 491,0l1484 -1485zm-2903 -1741c78,-174 284,-252 459,-173 174,79 252,284 173,459 -1074,2381 -367,814 -1441,3195 -79,175 -284,253 -459,174 -175,-79 -252,-284 -174,-459 1074,-2381 368,-814 1442,-3196zm-589 5726c163,0 295,132 295,294 0,163 -132,295 -295,295 -162,0 -294,-132 -294,-295 0,-162 132,-294 294,-294zm0 -8012c105,0 189,84 189,189 0,104 -84,188 -189,188 -104,0 -189,-84 -189,-188 0,-105 85,-189 189,-189zm-4812 528l9625 0c147,0 268,121 268,269l0 6707c0,148 -121,268 -268,268l-9625 0c-148,0 -268,-120 -268,-268l0 -6707c0,-148 120,-269 268,-269z"/>
 </g>
</svg>
