<?xml version="1.0" encoding="UTF-8"?>
<!DOCTYPE svg PUBLIC "-//W3C//DTD SVG 1.1//EN" "http://www.w3.org/Graphics/SVG/1.1/DTD/svg11.dtd">
<!-- Creator: CorelDRAW X7 -->
<svg xmlns="http://www.w3.org/2000/svg" xml:space="preserve" width="215.9mm" height="279.4mm" version="1.1" style="shape-rendering:geometricPrecision; text-rendering:geometricPrecision; image-rendering:optimizeQuality; fill-rule:evenodd; clip-rule:evenodd"
viewBox="0 0 21590 27940"
 xmlns:xlink="http://www.w3.org/1999/xlink">
 <defs>
  <style type="text/css">
   <![CDATA[
    .fil0 {fill:#373435}
   ]]>
  </style>
 </defs>
 <g id="Capa_x0020_1">
  <metadata id="CorelCorpID_0Corel-Layer"/>
  <path class="fil0" d="M68926 5057c-1319,1234 -1635,3205 -767,4789 868,1584 2699,2379 4449,1932 1750,-448 2975,-2024 2976,-3830 1,-415 -203,-803 -546,-1036 -343,-234 -779,-282 -1164,-128 -68,22 -137,41 -206,55 -62,140 -127,279 -192,418 -197,413 -412,825 -654,1214 -166,269 -368,567 -595,789 -152,149 -379,321 -605,236 -226,-86 -282,-365 -298,-577 -23,-317 23,-674 76,-986 77,-452 188,-902 314,-1342 50,-172 101,-344 156,-515 -54,-83 -101,-173 -140,-268 -151,-581 -603,-1037 -1183,-1193 -581,-155 -1200,13 -1621,442zm5390 -406c-104,326 -222,664 -353,1010 -829,2190 -1849,3834 -2279,3671 -430,-163 -107,-2070 721,-4260 135,-357 275,-700 417,-1022 376,433 935,652 1494,601zm2020 -1776c240,252 364,592 342,940 833,-953 772,-2391 -137,-3270 -910,-879 -2349,-890 -3272,-25 -923,865 -1006,2302 -188,3267 388,458 1009,648 1588,485 578,-162 1009,-647 1102,-1241 21,-124 112,-224 233,-258 121,-33 250,7 332,102zm-3815 7397c557,-178 1067,-139 1139,87 73,227 -321,554 -878,732 -557,177 -1068,138 -1140,-88 -72,-226 322,-554 879,-731zm-1895 -354c558,-178 1068,-139 1140,87 72,227 -321,554 -878,732 -558,177 -1068,138 -1140,-88 -72,-226 321,-554 878,-731zm-994 -1052c558,-177 1068,-138 1140,88 72,226 -321,554 -879,731 -557,178 -1067,139 -1139,-87 -72,-227 321,-554 878,-732zm486 -3551c516,0 934,419 934,934 0,516 -418,934 -934,934 -516,0 -934,-418 -934,-934 0,-515 418,-934 934,-934z"/>
 </g>
</svg>
